<mxfile host="app.diagrams.net" modified="2023-11-30T15:04:34.525Z" agent="Mozilla/5.0 (Macintosh; Intel Mac OS X 10_15_7) AppleWebKit/537.36 (KHTML, like Gecko) Chrome/119.0.0.0 Safari/537.36" etag="0r3dsSSmn66uBBu8EFZl" version="22.1.5" type="github">
  <diagram name="Page-1" id="sZaRFY_wS3xeuETo2kx1">
    <mxGraphModel dx="955" dy="512" grid="1" gridSize="10" guides="1" tooltips="1" connect="1" arrows="1" fold="1" page="1" pageScale="1" pageWidth="1100" pageHeight="850" math="0" shadow="0">
      <root>
        <mxCell id="0" />
        <mxCell id="Anqft-yjqPqL2RH1cFlM-124" value="Before" parent="0" visible="0" />
        <mxCell id="Anqft-yjqPqL2RH1cFlM-125" value="" style="rounded=0;whiteSpace=wrap;html=1;fillColor=none;strokeWidth=3;" parent="Anqft-yjqPqL2RH1cFlM-124" vertex="1">
          <mxGeometry x="80" y="158.38" width="910" height="451.62" as="geometry" />
        </mxCell>
        <mxCell id="Anqft-yjqPqL2RH1cFlM-127" value="" style="rounded=1;whiteSpace=wrap;html=1;" parent="Anqft-yjqPqL2RH1cFlM-124" vertex="1">
          <mxGeometry x="220" y="230" width="110" height="221.59" as="geometry" />
        </mxCell>
        <mxCell id="Anqft-yjqPqL2RH1cFlM-128" value="" style="shape=image;html=1;verticalAlign=top;verticalLabelPosition=bottom;labelBackgroundColor=#ffffff;imageAspect=0;aspect=fixed;image=https://cdn2.iconfinder.com/data/icons/social-media-2285/512/1_Slack_colored_svg-128.png;imageBackground=none;" parent="Anqft-yjqPqL2RH1cFlM-124" vertex="1">
          <mxGeometry x="240" y="251.59" width="63" height="63" as="geometry" />
        </mxCell>
        <mxCell id="Anqft-yjqPqL2RH1cFlM-144" value="&lt;span style=&quot;font-size: 14px;&quot;&gt;Manual Search Across Systems&lt;/span&gt;" style="rounded=1;whiteSpace=wrap;html=1;fillColor=#F19C99;" parent="Anqft-yjqPqL2RH1cFlM-124" vertex="1">
          <mxGeometry x="630" y="304" width="120" height="60" as="geometry" />
        </mxCell>
        <mxCell id="Anqft-yjqPqL2RH1cFlM-146" value="" style="rounded=1;whiteSpace=wrap;html=1;strokeWidth=2;fillColor=none;" parent="Anqft-yjqPqL2RH1cFlM-124" vertex="1">
          <mxGeometry x="90" y="1030" width="890" height="570" as="geometry" />
        </mxCell>
        <mxCell id="Anqft-yjqPqL2RH1cFlM-147" value="" style="shape=image;html=1;verticalAlign=top;verticalLabelPosition=bottom;labelBackgroundColor=#ffffff;imageAspect=0;aspect=fixed;image=https://cdn2.iconfinder.com/data/icons/social-media-2285/512/1_Slack_colored_svg-128.png;imageBackground=none;" parent="Anqft-yjqPqL2RH1cFlM-124" vertex="1">
          <mxGeometry x="316" y="1262.5" width="75" height="75" as="geometry" />
        </mxCell>
        <mxCell id="Anqft-yjqPqL2RH1cFlM-148" value="" style="group" parent="Anqft-yjqPqL2RH1cFlM-124" vertex="1" connectable="0">
          <mxGeometry x="126" y="1250" width="100" height="115" as="geometry" />
        </mxCell>
        <mxCell id="Anqft-yjqPqL2RH1cFlM-149" value="&lt;font style=&quot;font-size: 72px;&quot;&gt;������&lt;/font&gt;" style="text;html=1;align=center;verticalAlign=middle;resizable=0;points=[];autosize=1;strokeColor=none;fillColor=none;" parent="Anqft-yjqPqL2RH1cFlM-148" vertex="1">
          <mxGeometry width="100" height="100" as="geometry" />
        </mxCell>
        <mxCell id="Anqft-yjqPqL2RH1cFlM-150" value="&lt;font style=&quot;font-size: 14px;&quot;&gt;Customer&lt;/font&gt;" style="text;html=1;align=center;verticalAlign=middle;resizable=0;points=[];autosize=1;strokeColor=none;fillColor=none;" parent="Anqft-yjqPqL2RH1cFlM-148" vertex="1">
          <mxGeometry x="10" y="85" width="80" height="30" as="geometry" />
        </mxCell>
        <mxCell id="Anqft-yjqPqL2RH1cFlM-151" value="" style="group" parent="Anqft-yjqPqL2RH1cFlM-124" vertex="1" connectable="0">
          <mxGeometry x="466" y="1250" width="100" height="115" as="geometry" />
        </mxCell>
        <mxCell id="Anqft-yjqPqL2RH1cFlM-152" value="&lt;span style=&quot;font-size: 72px;&quot;&gt;������&lt;/span&gt;" style="text;html=1;align=center;verticalAlign=middle;resizable=0;points=[];autosize=1;strokeColor=none;fillColor=none;" parent="Anqft-yjqPqL2RH1cFlM-151" vertex="1">
          <mxGeometry width="100" height="100" as="geometry" />
        </mxCell>
        <mxCell id="Anqft-yjqPqL2RH1cFlM-153" value="&lt;font style=&quot;font-size: 14px;&quot;&gt;Support&lt;/font&gt;" style="text;html=1;align=center;verticalAlign=middle;resizable=0;points=[];autosize=1;strokeColor=none;fillColor=none;" parent="Anqft-yjqPqL2RH1cFlM-151" vertex="1">
          <mxGeometry x="15" y="85" width="70" height="30" as="geometry" />
        </mxCell>
        <mxCell id="Anqft-yjqPqL2RH1cFlM-154" value="" style="group" parent="Anqft-yjqPqL2RH1cFlM-124" vertex="1" connectable="0">
          <mxGeometry x="818" y="1120" width="90" height="108" as="geometry" />
        </mxCell>
        <mxCell id="Anqft-yjqPqL2RH1cFlM-155" value="" style="sketch=0;outlineConnect=0;fontColor=#232F3E;gradientColor=none;fillColor=#E7157B;strokeColor=none;dashed=0;verticalLabelPosition=bottom;verticalAlign=top;align=center;html=1;fontSize=12;fontStyle=0;aspect=fixed;pointerEvents=1;shape=mxgraph.aws4.documents;" parent="Anqft-yjqPqL2RH1cFlM-154" vertex="1">
          <mxGeometry x="18" width="64" height="78" as="geometry" />
        </mxCell>
        <mxCell id="Anqft-yjqPqL2RH1cFlM-156" value="Public Docs" style="text;html=1;align=center;verticalAlign=middle;resizable=0;points=[];autosize=1;strokeColor=none;fillColor=none;" parent="Anqft-yjqPqL2RH1cFlM-154" vertex="1">
          <mxGeometry y="78" width="90" height="30" as="geometry" />
        </mxCell>
        <mxCell id="Anqft-yjqPqL2RH1cFlM-157" value="" style="group" parent="Anqft-yjqPqL2RH1cFlM-124" vertex="1" connectable="0">
          <mxGeometry x="831" y="1261" width="75" height="119" as="geometry" />
        </mxCell>
        <mxCell id="Anqft-yjqPqL2RH1cFlM-158" value="" style="sketch=0;outlineConnect=0;fontColor=#232F3E;gradientColor=none;fillColor=#7AA116;strokeColor=none;dashed=0;verticalLabelPosition=bottom;verticalAlign=top;align=center;html=1;fontSize=12;fontStyle=0;aspect=fixed;pointerEvents=1;shape=mxgraph.aws4.bucket_with_objects;" parent="Anqft-yjqPqL2RH1cFlM-157" vertex="1">
          <mxGeometry width="75" height="78" as="geometry" />
        </mxCell>
        <mxCell id="Anqft-yjqPqL2RH1cFlM-159" value="Blogs" style="text;html=1;align=center;verticalAlign=middle;resizable=0;points=[];autosize=1;strokeColor=none;fillColor=none;" parent="Anqft-yjqPqL2RH1cFlM-157" vertex="1">
          <mxGeometry x="12.5" y="89" width="50" height="30" as="geometry" />
        </mxCell>
        <mxCell id="Anqft-yjqPqL2RH1cFlM-160" value="" style="group" parent="Anqft-yjqPqL2RH1cFlM-124" vertex="1" connectable="0">
          <mxGeometry x="813.8" y="1421.67" width="110" height="98.33000000000004" as="geometry" />
        </mxCell>
        <mxCell id="Anqft-yjqPqL2RH1cFlM-161" value="" style="verticalLabelPosition=bottom;aspect=fixed;html=1;shape=mxgraph.salesforce.financial_services;" parent="Anqft-yjqPqL2RH1cFlM-160" vertex="1">
          <mxGeometry x="22.200000000000045" width="65.6" height="68.33" as="geometry" />
        </mxCell>
        <mxCell id="Anqft-yjqPqL2RH1cFlM-162" value="Ticketing System" style="text;html=1;align=center;verticalAlign=middle;resizable=0;points=[];autosize=1;strokeColor=none;fillColor=none;" parent="Anqft-yjqPqL2RH1cFlM-160" vertex="1">
          <mxGeometry y="68.33000000000004" width="110" height="30" as="geometry" />
        </mxCell>
        <mxCell id="Anqft-yjqPqL2RH1cFlM-163" value="&lt;font style=&quot;font-size: 14px;&quot;&gt;Frantic Search&lt;/font&gt;" style="rounded=1;whiteSpace=wrap;html=1;" parent="Anqft-yjqPqL2RH1cFlM-124" vertex="1">
          <mxGeometry x="623" y="1277.5" width="120" height="60" as="geometry" />
        </mxCell>
        <mxCell id="Anqft-yjqPqL2RH1cFlM-164" value="How convert dog to puppy?" style="whiteSpace=wrap;html=1;shape=mxgraph.basic.oval_callout;fillColor=#FFFFFF;" parent="Anqft-yjqPqL2RH1cFlM-124" vertex="1">
          <mxGeometry x="163" y="1150" width="130" height="78" as="geometry" />
        </mxCell>
        <mxCell id="Anqft-yjqPqL2RH1cFlM-165" value="" style="endArrow=classic;html=1;rounded=0;" parent="Anqft-yjqPqL2RH1cFlM-124" edge="1">
          <mxGeometry width="50" height="50" relative="1" as="geometry">
            <mxPoint x="753" y="1270" as="sourcePoint" />
            <mxPoint x="803" y="1220" as="targetPoint" />
          </mxGeometry>
        </mxCell>
        <mxCell id="Anqft-yjqPqL2RH1cFlM-166" value="" style="endArrow=classic;html=1;rounded=0;" parent="Anqft-yjqPqL2RH1cFlM-124" edge="1">
          <mxGeometry width="50" height="50" relative="1" as="geometry">
            <mxPoint x="753" y="1315" as="sourcePoint" />
            <mxPoint x="813" y="1315" as="targetPoint" />
          </mxGeometry>
        </mxCell>
        <mxCell id="Anqft-yjqPqL2RH1cFlM-167" value="" style="endArrow=classic;html=1;rounded=0;" parent="Anqft-yjqPqL2RH1cFlM-124" edge="1">
          <mxGeometry width="50" height="50" relative="1" as="geometry">
            <mxPoint x="753" y="1345.5" as="sourcePoint" />
            <mxPoint x="803" y="1400" as="targetPoint" />
          </mxGeometry>
        </mxCell>
        <mxCell id="Anqft-yjqPqL2RH1cFlM-168" value="&lt;span style=&quot;font-size: 18px;&quot;&gt;Slow Response Time&lt;br&gt;CSAT/Metric Issues&lt;br&gt;Support Toil&lt;br&gt;&lt;/span&gt;" style="rounded=0;whiteSpace=wrap;html=1;strokeWidth=2;" parent="Anqft-yjqPqL2RH1cFlM-124" vertex="1">
          <mxGeometry x="96" y="670" width="874" height="120" as="geometry" />
        </mxCell>
        <mxCell id="Anqft-yjqPqL2RH1cFlM-169" value="" style="sketch=0;outlineConnect=0;fontColor=#232F3E;gradientColor=none;fillColor=#DD344C;strokeColor=none;dashed=0;verticalLabelPosition=bottom;verticalAlign=top;align=center;html=1;fontSize=12;fontStyle=0;aspect=fixed;shape=mxgraph.aws4.email;" parent="Anqft-yjqPqL2RH1cFlM-124" vertex="1">
          <mxGeometry x="240" y="341.8" width="64" height="56.62" as="geometry" />
        </mxCell>
        <mxCell id="Anqft-yjqPqL2RH1cFlM-170" value="#Support Channels" style="text;html=1;align=center;verticalAlign=middle;resizable=0;points=[];autosize=1;strokeColor=none;fillColor=none;" parent="Anqft-yjqPqL2RH1cFlM-124" vertex="1">
          <mxGeometry x="210" y="410" width="130" height="30" as="geometry" />
        </mxCell>
        <mxCell id="Anqft-yjqPqL2RH1cFlM-182" value="" style="endArrow=classic;startArrow=classic;html=1;rounded=0;entryX=0.573;entryY=0.528;entryDx=0;entryDy=0;entryPerimeter=0;" parent="Anqft-yjqPqL2RH1cFlM-124" edge="1">
          <mxGeometry width="50" height="50" relative="1" as="geometry">
            <mxPoint x="580" y="333.61999999999995" as="sourcePoint" />
            <mxPoint x="619.97" y="333.50000000000006" as="targetPoint" />
          </mxGeometry>
        </mxCell>
        <mxCell id="Anqft-yjqPqL2RH1cFlM-183" value="" style="endArrow=classic;startArrow=classic;html=1;rounded=0;entryX=0.573;entryY=0.528;entryDx=0;entryDy=0;entryPerimeter=0;" parent="Anqft-yjqPqL2RH1cFlM-124" edge="1">
          <mxGeometry width="50" height="50" relative="1" as="geometry">
            <mxPoint x="770" y="334.7" as="sourcePoint" />
            <mxPoint x="809.97" y="334.5800000000001" as="targetPoint" />
          </mxGeometry>
        </mxCell>
        <mxCell id="Anqft-yjqPqL2RH1cFlM-204" value="" style="sketch=0;outlineConnect=0;fontColor=#232F3E;gradientColor=none;fillColor=#232F3D;strokeColor=none;dashed=0;verticalLabelPosition=bottom;verticalAlign=top;align=center;html=1;fontSize=12;fontStyle=0;aspect=fixed;pointerEvents=1;shape=mxgraph.aws4.user;" parent="Anqft-yjqPqL2RH1cFlM-124" vertex="1">
          <mxGeometry x="90" y="280" width="94" height="94" as="geometry" />
        </mxCell>
        <mxCell id="Anqft-yjqPqL2RH1cFlM-205" value="" style="endArrow=classic;startArrow=classic;html=1;rounded=0;entryX=0.573;entryY=0.528;entryDx=0;entryDy=0;entryPerimeter=0;" parent="Anqft-yjqPqL2RH1cFlM-124" edge="1">
          <mxGeometry width="50" height="50" relative="1" as="geometry">
            <mxPoint x="169.99999999999997" y="333.12" as="sourcePoint" />
            <mxPoint x="209.97000000000003" y="333.0000000000001" as="targetPoint" />
          </mxGeometry>
        </mxCell>
        <mxCell id="Anqft-yjqPqL2RH1cFlM-210" value="" style="sketch=0;points=[[0,0,0],[0.25,0,0],[0.5,0,0],[0.75,0,0],[1,0,0],[0,1,0],[0.25,1,0],[0.5,1,0],[0.75,1,0],[1,1,0],[0,0.25,0],[0,0.5,0],[0,0.75,0],[1,0.25,0],[1,0.5,0],[1,0.75,0]];outlineConnect=0;fontColor=#232F3E;fillColor=#8C4FFF;strokeColor=#ffffff;dashed=0;verticalLabelPosition=bottom;verticalAlign=top;align=center;html=1;fontSize=12;fontStyle=0;aspect=fixed;shape=mxgraph.aws4.resourceIcon;resIcon=mxgraph.aws4.api_gateway;" parent="Anqft-yjqPqL2RH1cFlM-124" vertex="1">
          <mxGeometry x="494" y="500" width="56" height="56" as="geometry" />
        </mxCell>
        <mxCell id="Anqft-yjqPqL2RH1cFlM-211" value="&lt;b&gt;API&#39;s&lt;br&gt;&lt;/b&gt;" style="text;html=1;align=center;verticalAlign=middle;resizable=0;points=[];autosize=1;strokeColor=none;fillColor=none;" parent="Anqft-yjqPqL2RH1cFlM-124" vertex="1">
          <mxGeometry x="500" y="556" width="50" height="30" as="geometry" />
        </mxCell>
        <mxCell id="jUoqrsleVEC9LtxdXnYX-1" value="" style="image;aspect=fixed;html=1;points=[];align=center;fontSize=12;image=img/lib/azure2/general/Help_and_Support.svg;" parent="Anqft-yjqPqL2RH1cFlM-124" vertex="1">
          <mxGeometry x="488.09" y="279" width="77.91" height="96" as="geometry" />
        </mxCell>
        <mxCell id="jUoqrsleVEC9LtxdXnYX-2" value="&lt;span style=&quot;font-size: 14px;&quot;&gt;Support Scripts&lt;/span&gt;" style="rounded=1;whiteSpace=wrap;html=1;fillColor=#F19C99;" parent="Anqft-yjqPqL2RH1cFlM-124" vertex="1">
          <mxGeometry x="467.05" y="380" width="120" height="60" as="geometry" />
        </mxCell>
        <mxCell id="Anqft-yjqPqL2RH1cFlM-219" value="" style="group" parent="Anqft-yjqPqL2RH1cFlM-124" vertex="1" connectable="0">
          <mxGeometry x="310.05" y="295" width="186" height="130" as="geometry" />
        </mxCell>
        <mxCell id="Anqft-yjqPqL2RH1cFlM-220" value="" style="verticalLabelPosition=bottom;aspect=fixed;html=1;shape=mxgraph.salesforce.financial_services;" parent="Anqft-yjqPqL2RH1cFlM-219" vertex="1">
          <mxGeometry x="37.5381818181819" width="78.36879432624107" height="81.63017860231788" as="geometry" />
        </mxCell>
        <mxCell id="KPeKn26dMngvvZ1dgBPD-5" value="" style="endArrow=classic;startArrow=classic;html=1;rounded=0;entryX=0.573;entryY=0.528;entryDx=0;entryDy=0;entryPerimeter=0;" edge="1" parent="Anqft-yjqPqL2RH1cFlM-219">
          <mxGeometry width="50" height="50" relative="1" as="geometry">
            <mxPoint x="130.97999999999996" y="43.289999999999964" as="sourcePoint" />
            <mxPoint x="170.95" y="43.17000000000007" as="targetPoint" />
          </mxGeometry>
        </mxCell>
        <mxCell id="Anqft-yjqPqL2RH1cFlM-214" value="" style="rounded=1;whiteSpace=wrap;html=1;" parent="Anqft-yjqPqL2RH1cFlM-124" vertex="1">
          <mxGeometry x="855" y="245" width="115" height="205" as="geometry" />
        </mxCell>
        <mxCell id="Anqft-yjqPqL2RH1cFlM-215" value="" style="group" parent="Anqft-yjqPqL2RH1cFlM-124" vertex="1" connectable="0">
          <mxGeometry x="872.5" y="265" width="70" height="95" as="geometry" />
        </mxCell>
        <mxCell id="Anqft-yjqPqL2RH1cFlM-216" value="" style="sketch=0;outlineConnect=0;fontColor=#232F3E;gradientColor=none;fillColor=#E7157B;strokeColor=none;dashed=0;verticalLabelPosition=bottom;verticalAlign=top;align=center;html=1;fontSize=12;fontStyle=0;aspect=fixed;pointerEvents=1;shape=mxgraph.aws4.documents;" parent="Anqft-yjqPqL2RH1cFlM-215" vertex="1">
          <mxGeometry x="14" width="49.77777777777778" height="60.666666666666664" as="geometry" />
        </mxCell>
        <mxCell id="Anqft-yjqPqL2RH1cFlM-217" value="" style="group" parent="Anqft-yjqPqL2RH1cFlM-124" vertex="1" connectable="0">
          <mxGeometry x="882.5" y="341.8" width="80" height="109.78991596638656" as="geometry" />
        </mxCell>
        <mxCell id="Anqft-yjqPqL2RH1cFlM-218" value="" style="sketch=0;outlineConnect=0;fontColor=#232F3E;gradientColor=none;fillColor=#7AA116;strokeColor=none;dashed=0;verticalLabelPosition=bottom;verticalAlign=top;align=center;html=1;fontSize=12;fontStyle=0;aspect=fixed;pointerEvents=1;shape=mxgraph.aws4.bucket_with_objects;" parent="Anqft-yjqPqL2RH1cFlM-217" vertex="1">
          <mxGeometry width="60" height="62.400000000000006" as="geometry" />
        </mxCell>
        <mxCell id="Anqft-yjqPqL2RH1cFlM-221" value="&lt;b&gt;Data Sources&lt;/b&gt;" style="text;html=1;align=center;verticalAlign=middle;resizable=0;points=[];autosize=1;strokeColor=none;fillColor=none;" parent="Anqft-yjqPqL2RH1cFlM-217" vertex="1">
          <mxGeometry x="-20" y="68.19999999999999" width="100" height="30" as="geometry" />
        </mxCell>
        <mxCell id="KPeKn26dMngvvZ1dgBPD-1" value="Case Mgmt &lt;br&gt;System" style="text;html=1;align=center;verticalAlign=middle;resizable=0;points=[];autosize=1;strokeColor=none;fillColor=none;" vertex="1" parent="Anqft-yjqPqL2RH1cFlM-124">
          <mxGeometry x="350" y="374" width="80" height="40" as="geometry" />
        </mxCell>
        <mxCell id="KPeKn26dMngvvZ1dgBPD-4" value="" style="endArrow=classic;startArrow=classic;html=1;rounded=0;entryX=0.484;entryY=0.718;entryDx=0;entryDy=0;entryPerimeter=0;" edge="1" parent="Anqft-yjqPqL2RH1cFlM-124" target="Anqft-yjqPqL2RH1cFlM-125">
          <mxGeometry width="50" height="50" relative="1" as="geometry">
            <mxPoint x="520" y="451.71" as="sourcePoint" />
            <mxPoint x="559.97" y="451.5900000000001" as="targetPoint" />
          </mxGeometry>
        </mxCell>
        <mxCell id="KPeKn26dMngvvZ1dgBPD-7" value="Current Bottleneck" style="swimlane;whiteSpace=wrap;html=1;" vertex="1" parent="Anqft-yjqPqL2RH1cFlM-124">
          <mxGeometry x="440" y="210" width="330" height="240" as="geometry" />
        </mxCell>
        <mxCell id="Anqft-yjqPqL2RH1cFlM-53" value="After" parent="0" />
        <mxCell id="KPeKn26dMngvvZ1dgBPD-9" value="AWS Cloud" style="points=[[0,0],[0.25,0],[0.5,0],[0.75,0],[1,0],[1,0.25],[1,0.5],[1,0.75],[1,1],[0.75,1],[0.5,1],[0.25,1],[0,1],[0,0.75],[0,0.5],[0,0.25]];outlineConnect=0;gradientColor=none;html=1;whiteSpace=wrap;fontSize=12;fontStyle=0;container=1;pointerEvents=0;collapsible=0;recursiveResize=0;shape=mxgraph.aws4.group;grIcon=mxgraph.aws4.group_aws_cloud_alt;strokeColor=#232F3E;fillColor=none;verticalAlign=top;align=left;spacingLeft=30;fontColor=#232F3E;dashed=0;" vertex="1" parent="Anqft-yjqPqL2RH1cFlM-53">
          <mxGeometry x="420" y="110" width="660" height="520" as="geometry" />
        </mxCell>
        <mxCell id="KPeKn26dMngvvZ1dgBPD-26" value="&lt;b&gt;Action Group &lt;br&gt;(FeatureRequests)&lt;/b&gt;" style="fillColor=#EFF0F3;strokeColor=none;dashed=0;verticalAlign=top;fontStyle=0;fontColor=#232F3D;whiteSpace=wrap;html=1;align=left;" vertex="1" parent="KPeKn26dMngvvZ1dgBPD-9">
          <mxGeometry x="60" y="280" width="390" height="220" as="geometry" />
        </mxCell>
        <mxCell id="KPeKn26dMngvvZ1dgBPD-25" value="Knowledge Base (RAG)" style="fillColor=#EFF0F3;strokeColor=none;dashed=0;verticalAlign=top;fontStyle=0;fontColor=#232F3D;whiteSpace=wrap;html=1;" vertex="1" parent="KPeKn26dMngvvZ1dgBPD-9">
          <mxGeometry x="400" y="6.27" width="246" height="260" as="geometry" />
        </mxCell>
        <mxCell id="Anqft-yjqPqL2RH1cFlM-118" value="" style="rounded=1;whiteSpace=wrap;html=1;" parent="KPeKn26dMngvvZ1dgBPD-9" vertex="1">
          <mxGeometry x="523.75" y="52.000000000000014" width="100" height="190" as="geometry" />
        </mxCell>
        <mxCell id="Anqft-yjqPqL2RH1cFlM-198" value="&lt;b&gt;Feature Req DB&lt;br&gt;&lt;/b&gt;" style="text;html=1;align=center;verticalAlign=middle;resizable=0;points=[];autosize=1;strokeColor=none;fillColor=none;" parent="KPeKn26dMngvvZ1dgBPD-9" vertex="1">
          <mxGeometry x="471.13" y="359" width="110" height="30" as="geometry" />
        </mxCell>
        <mxCell id="KPeKn26dMngvvZ1dgBPD-23" value="" style="outlineConnect=0;dashed=0;verticalLabelPosition=bottom;verticalAlign=top;align=center;html=1;shape=mxgraph.aws3.dynamo_db;fillColor=#2E73B8;gradientColor=none;" vertex="1" parent="KPeKn26dMngvvZ1dgBPD-9">
          <mxGeometry x="498.25" y="298" width="55.75" height="61" as="geometry" />
        </mxCell>
        <mxCell id="Anqft-yjqPqL2RH1cFlM-63" value="" style="group" parent="KPeKn26dMngvvZ1dgBPD-9" vertex="1" connectable="0">
          <mxGeometry x="536.25" y="56.999999999999986" width="70" height="95" as="geometry" />
        </mxCell>
        <mxCell id="Anqft-yjqPqL2RH1cFlM-64" value="" style="sketch=0;outlineConnect=0;fontColor=#232F3E;gradientColor=none;fillColor=#E7157B;strokeColor=none;dashed=0;verticalLabelPosition=bottom;verticalAlign=top;align=center;html=1;fontSize=12;fontStyle=0;aspect=fixed;pointerEvents=1;shape=mxgraph.aws4.documents;" parent="Anqft-yjqPqL2RH1cFlM-63" vertex="1">
          <mxGeometry x="14" width="49.77777777777778" height="60.666666666666664" as="geometry" />
        </mxCell>
        <mxCell id="Anqft-yjqPqL2RH1cFlM-66" value="" style="group" parent="KPeKn26dMngvvZ1dgBPD-9" vertex="1" connectable="0">
          <mxGeometry x="546.25" y="133.79999999999998" width="60" height="109.78991596638656" as="geometry" />
        </mxCell>
        <mxCell id="Anqft-yjqPqL2RH1cFlM-67" value="" style="sketch=0;outlineConnect=0;fontColor=#232F3E;gradientColor=none;fillColor=#7AA116;strokeColor=none;dashed=0;verticalLabelPosition=bottom;verticalAlign=top;align=center;html=1;fontSize=12;fontStyle=0;aspect=fixed;pointerEvents=1;shape=mxgraph.aws4.bucket_with_objects;" parent="Anqft-yjqPqL2RH1cFlM-66" vertex="1">
          <mxGeometry width="60" height="62.400000000000006" as="geometry" />
        </mxCell>
        <mxCell id="Anqft-yjqPqL2RH1cFlM-121" value="&lt;b&gt;Data Sources&lt;/b&gt;" style="text;html=1;align=center;verticalAlign=middle;resizable=0;points=[];autosize=1;strokeColor=none;fillColor=none;" parent="KPeKn26dMngvvZ1dgBPD-9" vertex="1">
          <mxGeometry x="526.25" y="202.19999999999996" width="100" height="30" as="geometry" />
        </mxCell>
        <mxCell id="Anqft-yjqPqL2RH1cFlM-190" value="" style="sketch=0;points=[[0,0,0],[0.25,0,0],[0.5,0,0],[0.75,0,0],[1,0,0],[0,1,0],[0.25,1,0],[0.5,1,0],[0.75,1,0],[1,1,0],[0,0.25,0],[0,0.5,0],[0,0.75,0],[1,0.25,0],[1,0.5,0],[1,0.75,0]];outlineConnect=0;fontColor=#232F3E;fillColor=#8C4FFF;strokeColor=#ffffff;dashed=0;verticalLabelPosition=bottom;verticalAlign=top;align=center;html=1;fontSize=12;fontStyle=0;aspect=fixed;shape=mxgraph.aws4.resourceIcon;resIcon=mxgraph.aws4.elasticsearch_service;" parent="KPeKn26dMngvvZ1dgBPD-9" vertex="1">
          <mxGeometry x="436.25" y="115.99999999999999" width="62" height="62" as="geometry" />
        </mxCell>
        <mxCell id="Anqft-yjqPqL2RH1cFlM-123" value="&lt;b&gt;IAM&lt;br&gt;&lt;/b&gt;" style="text;html=1;align=center;verticalAlign=middle;resizable=0;points=[];autosize=1;strokeColor=none;fillColor=none;" parent="KPeKn26dMngvvZ1dgBPD-9" vertex="1">
          <mxGeometry x="442.25" y="183" width="50" height="30" as="geometry" />
        </mxCell>
        <mxCell id="Anqft-yjqPqL2RH1cFlM-115" value="" style="endArrow=classic;startArrow=classic;html=1;rounded=0;entryX=0.573;entryY=0.528;entryDx=0;entryDy=0;entryPerimeter=0;" parent="KPeKn26dMngvvZ1dgBPD-9" edge="1">
          <mxGeometry width="50" height="50" relative="1" as="geometry">
            <mxPoint x="382.25" y="151.99999999999997" as="sourcePoint" />
            <mxPoint x="422.25" y="151.99999999999997" as="targetPoint" />
          </mxGeometry>
        </mxCell>
        <mxCell id="Anqft-yjqPqL2RH1cFlM-122" value="&lt;b&gt;FM&lt;/b&gt;" style="text;html=1;align=center;verticalAlign=middle;resizable=0;points=[];autosize=1;strokeColor=none;fillColor=none;" parent="KPeKn26dMngvvZ1dgBPD-9" vertex="1">
          <mxGeometry x="220" y="-3.9968028886505635e-15" width="40" height="30" as="geometry" />
        </mxCell>
        <mxCell id="Anqft-yjqPqL2RH1cFlM-102" value="" style="sketch=0;points=[[0,0,0],[0.25,0,0],[0.5,0,0],[0.75,0,0],[1,0,0],[0,1,0],[0.25,1,0],[0.5,1,0],[0.75,1,0],[1,1,0],[0,0.25,0],[0,0.5,0],[0,0.75,0],[1,0.25,0],[1,0.5,0],[1,0.75,0]];outlineConnect=0;fontColor=#232F3E;fillColor=#01A88D;strokeColor=#ffffff;dashed=0;verticalLabelPosition=bottom;verticalAlign=top;align=center;html=1;fontSize=12;fontStyle=0;aspect=fixed;shape=mxgraph.aws4.resourceIcon;resIcon=mxgraph.aws4.bedrock;" parent="KPeKn26dMngvvZ1dgBPD-9" vertex="1">
          <mxGeometry x="210" y="30.00000000000001" width="60" height="60" as="geometry" />
        </mxCell>
        <mxCell id="Anqft-yjqPqL2RH1cFlM-116" value="" style="endArrow=classic;startArrow=classic;html=1;rounded=0;" parent="KPeKn26dMngvvZ1dgBPD-9" edge="1">
          <mxGeometry width="50" height="50" relative="1" as="geometry">
            <mxPoint x="243.5" y="100.16999999999999" as="sourcePoint" />
            <mxPoint x="244" y="130" as="targetPoint" />
          </mxGeometry>
        </mxCell>
        <mxCell id="KPeKn26dMngvvZ1dgBPD-29" value="" style="sketch=0;points=[[0,0,0],[0.25,0,0],[0.5,0,0],[0.75,0,0],[1,0,0],[0,1,0],[0.25,1,0],[0.5,1,0],[0.75,1,0],[1,1,0],[0,0.25,0],[0,0.5,0],[0,0.75,0],[1,0.25,0],[1,0.5,0],[1,0.75,0]];outlineConnect=0;fontColor=#232F3E;fillColor=#E7157B;strokeColor=#ffffff;dashed=0;verticalLabelPosition=bottom;verticalAlign=top;align=center;html=1;fontSize=12;fontStyle=0;aspect=fixed;shape=mxgraph.aws4.resourceIcon;resIcon=mxgraph.aws4.sns;" vertex="1" parent="KPeKn26dMngvvZ1dgBPD-9">
          <mxGeometry x="497" y="399" width="57" height="57" as="geometry" />
        </mxCell>
        <mxCell id="Anqft-yjqPqL2RH1cFlM-193" value="" style="sketch=0;points=[[0,0,0],[0.25,0,0],[0.5,0,0],[0.75,0,0],[1,0,0],[0,1,0],[0.25,1,0],[0.5,1,0],[0.75,1,0],[1,1,0],[0,0.25,0],[0,0.5,0],[0,0.75,0],[1,0.25,0],[1,0.5,0],[1,0.75,0]];outlineConnect=0;fontColor=#232F3E;fillColor=#ED7100;strokeColor=#ffffff;dashed=0;verticalLabelPosition=bottom;verticalAlign=top;align=center;html=1;fontSize=12;fontStyle=0;aspect=fixed;shape=mxgraph.aws4.resourceIcon;resIcon=mxgraph.aws4.lambda;" parent="KPeKn26dMngvvZ1dgBPD-9" vertex="1">
          <mxGeometry x="342.5" y="299" width="50" height="50" as="geometry" />
        </mxCell>
        <mxCell id="KPeKn26dMngvvZ1dgBPD-30" value="&lt;b&gt;Notify Customer&lt;br&gt;&lt;/b&gt;" style="text;html=1;align=center;verticalAlign=middle;resizable=0;points=[];autosize=1;strokeColor=none;fillColor=none;" vertex="1" parent="KPeKn26dMngvvZ1dgBPD-9">
          <mxGeometry x="471.13" y="456" width="120" height="30" as="geometry" />
        </mxCell>
        <mxCell id="KPeKn26dMngvvZ1dgBPD-32" value="&lt;b&gt;Complete &lt;br&gt;Feature Request&lt;br&gt;&lt;/b&gt;" style="text;html=1;align=center;verticalAlign=middle;resizable=0;points=[];autosize=1;strokeColor=none;fillColor=none;" vertex="1" parent="KPeKn26dMngvvZ1dgBPD-9">
          <mxGeometry x="307.5" y="455" width="120" height="40" as="geometry" />
        </mxCell>
        <mxCell id="KPeKn26dMngvvZ1dgBPD-33" value="&lt;b&gt;Update &lt;br&gt;Feature Request&lt;br&gt;&lt;/b&gt;" style="text;html=1;align=center;verticalAlign=middle;resizable=0;points=[];autosize=1;strokeColor=none;fillColor=none;" vertex="1" parent="KPeKn26dMngvvZ1dgBPD-9">
          <mxGeometry x="307.5" y="349" width="120" height="40" as="geometry" />
        </mxCell>
        <mxCell id="KPeKn26dMngvvZ1dgBPD-34" value="" style="shape=image;verticalLabelPosition=bottom;labelBackgroundColor=default;verticalAlign=top;aspect=fixed;imageAspect=0;image=https://www.openapis.org/wp-content/uploads/sites/3/2023/04/OpenAPI_Specification_Logo_Pantone1.png;clipPath=inset(3.09% 69.67% 0% 3.33%);" vertex="1" parent="KPeKn26dMngvvZ1dgBPD-9">
          <mxGeometry x="74.69" y="324.78" width="90.52" height="87.72" as="geometry" />
        </mxCell>
        <mxCell id="KPeKn26dMngvvZ1dgBPD-35" value="OpenAPI Spec" style="text;html=1;align=center;verticalAlign=middle;resizable=0;points=[];autosize=1;strokeColor=none;fillColor=none;" vertex="1" parent="KPeKn26dMngvvZ1dgBPD-9">
          <mxGeometry x="69.95" y="412.5" width="100" height="30" as="geometry" />
        </mxCell>
        <mxCell id="KPeKn26dMngvvZ1dgBPD-42" value="" style="sketch=0;points=[[0,0,0],[0.25,0,0],[0.5,0,0],[0.75,0,0],[1,0,0],[0,1,0],[0.25,1,0],[0.5,1,0],[0.75,1,0],[1,1,0],[0,0.25,0],[0,0.5,0],[0,0.75,0],[1,0.25,0],[1,0.5,0],[1,0.75,0]];outlineConnect=0;fontColor=#232F3E;fillColor=#ED7100;strokeColor=#ffffff;dashed=0;verticalLabelPosition=bottom;verticalAlign=top;align=center;html=1;fontSize=12;fontStyle=0;aspect=fixed;shape=mxgraph.aws4.resourceIcon;resIcon=mxgraph.aws4.lambda;" vertex="1" parent="KPeKn26dMngvvZ1dgBPD-9">
          <mxGeometry x="342.5" y="399" width="50" height="50" as="geometry" />
        </mxCell>
        <mxCell id="KPeKn26dMngvvZ1dgBPD-15" value="" style="group" vertex="1" connectable="0" parent="Anqft-yjqPqL2RH1cFlM-53">
          <mxGeometry x="278.52" y="219" width="244.98000000000002" height="211" as="geometry" />
        </mxCell>
        <mxCell id="KPeKn26dMngvvZ1dgBPD-18" value="" style="endArrow=classic;startArrow=classic;html=1;rounded=0;entryX=0.573;entryY=0.528;entryDx=0;entryDy=0;entryPerimeter=0;" edge="1" parent="KPeKn26dMngvvZ1dgBPD-15">
          <mxGeometry width="50" height="50" relative="1" as="geometry">
            <mxPoint x="118" y="39.5" as="sourcePoint" />
            <mxPoint x="158" y="39.5" as="targetPoint" />
          </mxGeometry>
        </mxCell>
        <mxCell id="jUoqrsleVEC9LtxdXnYX-4" value="" style="image;aspect=fixed;html=1;points=[];align=center;fontSize=12;image=img/lib/azure2/general/Help_and_Support.svg;" parent="KPeKn26dMngvvZ1dgBPD-15" vertex="1">
          <mxGeometry x="33.68000000000001" y="91" width="73.04" height="90" as="geometry" />
        </mxCell>
        <mxCell id="jUoqrsleVEC9LtxdXnYX-5" value="Support In The Loop" style="text;html=1;align=center;verticalAlign=middle;resizable=0;points=[];autosize=1;strokeColor=none;fillColor=none;" parent="KPeKn26dMngvvZ1dgBPD-15" vertex="1">
          <mxGeometry x="5.199999999999989" y="181" width="130" height="30" as="geometry" />
        </mxCell>
        <mxCell id="Anqft-yjqPqL2RH1cFlM-191" value="Bedrock API" style="verticalLabelPosition=bottom;html=1;verticalAlign=top;align=center;strokeColor=none;fillColor=#00BEF2;shape=mxgraph.azure.worker_role;" parent="KPeKn26dMngvvZ1dgBPD-15" vertex="1">
          <mxGeometry x="164.98000000000002" y="11.000000000000014" width="80" height="61.6" as="geometry" />
        </mxCell>
        <mxCell id="Anqft-yjqPqL2RH1cFlM-206" value="" style="sketch=0;outlineConnect=0;fontColor=#232F3E;gradientColor=none;fillColor=#232F3D;strokeColor=none;dashed=0;verticalLabelPosition=bottom;verticalAlign=top;align=center;html=1;fontSize=12;fontStyle=0;aspect=fixed;pointerEvents=1;shape=mxgraph.aws4.user;" parent="Anqft-yjqPqL2RH1cFlM-53" vertex="1">
          <mxGeometry x="140" y="203" width="94" height="94" as="geometry" />
        </mxCell>
        <mxCell id="Anqft-yjqPqL2RH1cFlM-207" value="" style="endArrow=classic;startArrow=classic;html=1;rounded=0;entryX=0.573;entryY=0.528;entryDx=0;entryDy=0;entryPerimeter=0;" parent="Anqft-yjqPqL2RH1cFlM-53" edge="1">
          <mxGeometry width="50" height="50" relative="1" as="geometry">
            <mxPoint x="238.54999999999998" y="256.62" as="sourcePoint" />
            <mxPoint x="278.52000000000004" y="256.5000000000001" as="targetPoint" />
          </mxGeometry>
        </mxCell>
        <mxCell id="KPeKn26dMngvvZ1dgBPD-16" value="" style="verticalLabelPosition=bottom;aspect=fixed;html=1;shape=mxgraph.salesforce.financial_services;" vertex="1" parent="Anqft-yjqPqL2RH1cFlM-53">
          <mxGeometry x="309.5381818181819" y="220" width="78.36879432624107" height="81.63017860231788" as="geometry" />
        </mxCell>
        <mxCell id="KPeKn26dMngvvZ1dgBPD-24" value="Case Mgmt&amp;nbsp;&lt;br&gt;(SaaS)" style="text;html=1;align=center;verticalAlign=middle;resizable=0;points=[];autosize=1;strokeColor=none;fillColor=none;" vertex="1" parent="Anqft-yjqPqL2RH1cFlM-53">
          <mxGeometry x="305" y="179" width="90" height="40" as="geometry" />
        </mxCell>
        <mxCell id="KPeKn26dMngvvZ1dgBPD-27" value="" style="sketch=0;outlineConnect=0;fontColor=#232F3E;gradientColor=none;fillColor=#DD344C;strokeColor=none;dashed=0;verticalLabelPosition=bottom;verticalAlign=top;align=center;html=1;fontSize=12;fontStyle=0;aspect=fixed;pointerEvents=1;shape=mxgraph.aws4.permissions;" vertex="1" parent="Anqft-yjqPqL2RH1cFlM-53">
          <mxGeometry x="385.11999999999995" y="170" width="31.79" height="40" as="geometry" />
        </mxCell>
      </root>
    </mxGraphModel>
  </diagram>
</mxfile>
